<svg xmlns="http://www.w3.org/2000/svg"><symbol id="brachiosaurus" viewBox="0 0 252 252"><path d="M57.58 164.47a32.66 32.66 0 0 0-7.6.85.27.27 0 0 1 0 .12.37.37 0 0 0 0 .13c0 .28.27.59.77 1a14.12 14.12 0 0 0 2 1c.79.32 1.68.65 2.63 1s1.89.59 2.77.84 1.68.44 2.38.59a11.1 11.1 0 0 0 1.45.22c.59 0 1.31 0 2.13-.1a15.16 15.16 0 0 0 2.5-.41 12.78 12.78 0 0 0 2.34-.86 4.34 4.34 0 0 0 1.68-1.44 27.35 27.35 0 0 0-6.32-2.18 30.87 30.87 0 0 0-6.73-.76z"/><path d="M125.83 0a125.83 125.83 0 1 0 125.84 125.83A125.83 125.83 0 0 0 125.83 0zm82.07 69.43v.31a7.53 7.53 0 0 1-.1 1.38c-.13.65-.19 1.36-.32 2.08s-.22 1.41-.35 2.07-.18 1.08-.23 1.33a10.09 10.09 0 0 0-.9 1.8c-.23.64-.44 1.28-.63 2s-.38 1.31-.58 2a14.27 14.27 0 0 1-.72 1.92 30.32 30.32 0 0 1-1.65 3 20.53 20.53 0 0 0-1.58 3l-19.76 27.44a2 2 0 0 1-.23.55 1.34 1.34 0 0 1-.26.27c-.08.09-.2.17-.31.28a2.66 2.66 0 0 0-.41.5l-1.65 2.23c-.64.88-1.33 1.84-2 2.85s-1.45 2.1-2.17 3.2-1.38 2.19-2 3.24a23.61 23.61 0 0 0-1.38 2.94 6.84 6.84 0 0 0-.52 2.29c0 .3-.23.53-.21.72s.19.43.19.69c-.16 0-.26.13-.26.37s.1.37.26.4v10.07a2.64 2.64 0 0 1-.24 1c-.16.37-.2.74-.36 1.15s-.49.81-.61 1.2-.43.79-.43 1.12v1.64a.4.4 0 0 1 0 .43c-.14.23-.2.49-.38.77s-.55.55-.71.8-.51.38-.51.41v.4c0 .08.69.21.78.41s.86.32.86.41v2.8a23.05 23.05 0 0 1-.61 3.48c-.18 1.17-.55 2.32-.76 3.46s-.48 2.32-.66 3.48a22.64 22.64 0 0 0-.33 3.48 61.77 61.77 0 0 0 .29 6.24 42.38 42.38 0 0 0 1.08 6.09 30.84 30.84 0 0 0 2.11 5.69A22.89 22.89 0 0 0 173 198a6 6 0 0 1-1.25.83 10.27 10.27 0 0 1-1.66.67 14 14 0 0 1-1.71.46 4.78 4.78 0 0 1-1.38.04 4 4 0 0 1-.46-.1c-.3-.06-.63-.15-1-.24l-1.18-.27c-.41-.1-.73-.16-1-.21a5.71 5.71 0 0 1-.74-.15 3.31 3.31 0 0 1-.74-.28 2.83 2.83 0 0 1-.61-.47 1.3 1.3 0 0 1-.32-.71 29.63 29.63 0 0 0 .11-4c0-1.4-.15-2.81-.28-4.22s-.33-2.82-.51-4.23-.38-2.74-.52-4a2.78 2.78 0 0 1-.2-.62 1.27 1.27 0 0 0-.25-.59c.07-1.1.1-2.3.14-3.62s0-2.64-.14-4a24.3 24.3 0 0 0-.59-3.94 11.28 11.28 0 0 0-1.41-3.35 3.35 3.35 0 0 0-1.45 1.79 24 24 0 0 0-.77 2.69c-.21.95-.19 1.9-.42 2.85s-.92 1.73-.92 2.32v7.48c0 2.81-.22 5.55-.1 8.21s.19 5.36.56 8.12a1.57 1.57 0 0 0 .41.33c.26.18.51.38.8.59a5.83 5.83 0 0 1 .79.69.91.91 0 0 1 .33.62c0 .23-.26.5-.8.79a13.08 13.08 0 0 1-1.83.85c-.69.28-1.36.64-2 .83a11.54 11.54 0 0 1-1.27.41h-.18l-4.7-2.56a.47.47 0 0 1-.22-.48v-.59a22.36 22.36 0 0 1 0-3 20.16 20.16 0 0 0 .12-3 26.12 26.12 0 0 0-.31-3.76c-.16-1.23-.38-2.46-.58-3.67s-.4-2.47-.58-3.71a28.54 28.54 0 0 1-.26-3.86c0-1.21 0-2.31.12-3.28s.19-1.89.34-2.78.34-1.82.52-2.77.41-2 .66-3.17a1.36 1.36 0 0 0-.05-.7 3.74 3.74 0 0 1-.11-.71 8.35 8.35 0 0 0-1.86.21c-.61.15-1.21.32-1.84.51l-1.9.61a17.13 17.13 0 0 1-1.89.51c-.51.06-1 .13-1.34.2l-1.07.13c-.35 0-.66-.13-1-.11s-.67-.17-1.05-.17h-1.81c-1.78 0-3.52.1-5.2 0a52 52 0 0 0-5.2-.15c-.77 0-1.58.06-2.41.09a4 4 0 0 0-2.33.85v5.14c0 1.69-.1 3.38-.16 5s-.2 3.37-.26 5.06-.15 3.4-.15 5.14v5.04c0 .54.65 1.1 1.11 1.65s1 1.12 1.39 1.69a18.54 18.54 0 0 1 1.19 1.74 3.48 3.48 0 0 1 .52 1.78v.37a9.07 9.07 0 0 1-4 .4c.08.47 0 .72-.23.79a4.23 4.23 0 0 1-.7.06h-2a9.42 9.42 0 0 1-2.23-.23 4.18 4.18 0 0 1-1.81-.83 2.19 2.19 0 0 1-.75-1.84 7 7 0 0 1 .13-1.28c.1-.43.2-.85.31-1.28s.23-.85.31-1.3a6.22 6.22 0 0 0 .13-1.38 25.93 25.93 0 0 0-.26-3.79c-.18-1.21-.41-2.39-.67-3.56s-.53-2.62-.81-3.78a27.69 27.69 0 0 1-.7-3.93h-.43c-.21 0-.38.74-.51.91s-.26.48-.39.67-.23.42-.31.53c-.5.74-1 1.53-1.55 2.25s-1 1.5-1.44 2.25a16.22 16.22 0 0 0-1.07 2.41 8.28 8.28 0 0 0-.42 2.66 4.36 4.36 0 0 0 .32 1.61 12.91 12.91 0 0 0 .73 1.49c.26.45.51.84.72 1.15a1.61 1.61 0 0 1 .33.58.85.85 0 0 1-.41.72 3.3 3.3 0 0 1-1 .46 10.28 10.28 0 0 1-1.32.26c-.46 0-.9.1-1.33.1h-1.22a12.32 12.32 0 0 1-1.71-.13 2.2 2.2 0 0 1-1.07-.39 2.09 2.09 0 0 1-.69-.86 9.44 9.44 0 0 1-.54-1.6c-.16-.54-.33-1.07-.51-1.6a5 5 0 0 1-.28-1.64 3.42 3.42 0 0 1 .41-1.48c.28-.5.59-1.05.94-1.57l1-1.56a7.27 7.27 0 0 0 .8-1.43q1.26-2.91 2.43-5.84c.81-2 1.61-3.89 2.45-5.85a4.27 4.27 0 0 1 .46-.73c.18-.23.36-.48.52-.71a3.24 3.24 0 0 0 .43-.74 1.76 1.76 0 0 0 .18-.82c0-.36-.11-.57-.33-.62a2.87 2.87 0 0 0-.64-.08 1.89 1.89 0 0 0-.38 0h-.24l-8.9 2.41a2.73 2.73 0 0 1-1.29.53l-1.76.39a7.13 7.13 0 0 0-1.56.57 1.12 1.12 0 0 0-.69 1.05 1.51 1.51 0 0 0 .26.89 2.85 2.85 0 0 0 .64.66l.83.54a2.83 2.83 0 0 1 .73.61l-.39.42c-.38-.26-.8-.54-1.26-.83a12.55 12.55 0 0 0-1.4-.83 9.47 9.47 0 0 0-1.49-.6 4.56 4.56 0 0 0-1.5-.23 14.21 14.21 0 0 0-3.75.51c-1.28.32-2.6.7-3.93 1.11s-2.67.81-4 1.14a17.3 17.3 0 0 1-4.17.5 21.53 21.53 0 0 1-3.43-.39c-1.48-.25-3.09-.62-4.84-1.1s-3.55-1.07-5.37-1.74a37.9 37.9 0 0 1-4.94-2.23 15.58 15.58 0 0 1-3.64-2.66 4.17 4.17 0 0 1-1.43-2.94 4.4 4.4 0 0 1 1.12-3.23 6.21 6.21 0 0 1 2.72-1.63 14.44 14.44 0 0 1 3.45-.14c1.21 0 2.33.32 3.31.32h3.94a2.58 2.58 0 0 1 1.26-.24c.69.08 1.47 0 2.32.15s1.71.18 2.53.31 1.49.18 2 .26a7.8 7.8 0 0 1 1.92.53c.59.28 1.18.55 1.77.84s1.18.52 1.81.75a5.88 5.88 0 0 0 2 .33 8.71 8.71 0 0 0 3.94-1 31.45 31.45 0 0 0 4.09-2.53c1.35-1 2.64-2 3.86-3.09s2.29-2 3.23-2.69a17.34 17.34 0 0 1 1.84-1.23c.62-.34 1.23-.71 1.84-1.08a15.79 15.79 0 0 0 1.7-1.25 7.91 7.91 0 0 0 1.48-1.69 36.88 36.88 0 0 0 2.59-4.43 30.6 30.6 0 0 1 2.68-4.42 6.9 6.9 0 0 1 1.3-1.29 14.63 14.63 0 0 1 1.52-1c.53-.29 1.07-.59 1.61-.87a15 15 0 0 0 1.61-.9c1.21-.81 2.41-1.68 3.56-2.61s2.3-1.91 3.41-2.89 2.24-2 3.34-3 2.23-1.94 3.41-2.84a20.77 20.77 0 0 1 3.74-2.18c1.31-.59 2.61-1.22 3.89-1.84.84-.38 1.66-.81 2.46-1.26s1.63-.89 2.45-1.3a22.88 22.88 0 0 1 2.54-1.13 12.36 12.36 0 0 1 2.64-.74l22.18-3.24a10.59 10.59 0 0 0 3.46-1.11 19.17 19.17 0 0 0 3.33-2.17 29.81 29.81 0 0 0 3.15-2.85c1-1 2-2.14 2.89-3.22s1.81-2.15 2.65-3.18 1.59-2 2.29-2.78l7.63-8.89a1.79 1.79 0 0 0 .33-.27 6.81 6.81 0 0 0 .53-.54c.2-.18.36-.36.51-.52s.24-.25.28-.27l2-3.23.25-.16c.13-.09.25-.15.38-.23a3.21 3.21 0 0 1 .38-.23 1 1 0 0 0 .21-.2 3 3 0 0 0 .41-.39c.2-.22.31-.33.36-.4.38-.49.79-1.05 1.23-1.69s.92-1.28 1.36-1.95.89-1.31 1.3-1.94a17.66 17.66 0 0 0 .95-1.71 12.18 12.18 0 0 0 .86-2q.34-1 .69-2.1c.21-.72.49-1.44.75-2.16s1-1.47 1-2.19v-6a5.18 5.18 0 0 0-1.08-3 11.67 11.67 0 0 0-2.67-2.58 12.71 12.71 0 0 0-3.32-1.79 9.11 9.11 0 0 0-3.18-.68 24.16 24.16 0 0 0-5.76.68 12 12 0 0 0-5.07 2.61 11.7 11.7 0 0 0-1.43 1.41c-.51.59-1 1.21-1.59 1.85l-1.74 2a22.31 22.31 0 0 1-1.82 1.82 11 11 0 0 1-1.81 1.3 3.51 3.51 0 0 1-1.76.51 1.55 1.55 0 0 1-1.14-.48 1.51 1.51 0 0 1-.51-1.12v-.42c0-.08.06-.25.11-.48s.11-.49.16-.75.11-.53.14-.77a2.52 2.52 0 0 0 .07-.46 5.19 5.19 0 0 0-.24-1.66 13 13 0 0 0-.59-1.35c-.23-.41-.41-.8-.59-1.18a3.14 3.14 0 0 1-.25-1.23 1.08 1.08 0 0 0 .84-.26 2.51 2.51 0 0 0 .44-.63l.43-.74a1.77 1.77 0 0 1 .79-.59 1.35 1.35 0 0 1 .54-.05c.23 0 .53-.11.85-.11s.64-.1.91-.1h.52a1.06 1.06 0 0 0 .93-.36 3.26 3.26 0 0 1 .71-.66.58.58 0 0 1 .23 0h.14a.81.81 0 0 1 .25.37 2 2 0 0 0 .18.42.46.46 0 0 1 .4-.38l.62-.36 1.1-.64 1.34-.8 1.33-.79 1.09-.64a4.54 4.54 0 0 0 .56-.39 17.21 17.21 0 0 1 2.12-1.21 7.12 7.12 0 0 1 1.76-.62 9.34 9.34 0 0 1 1.9-.22h6.38a6 6 0 0 0 1.46.53c.51.13 1 .23 1.51.31s1 .19 1.55.31a10 10 0 0 1 1.52.49 15.15 15.15 0 0 1 4.52 3 16.82 16.82 0 0 1 3.16 4.17 18.74 18.74 0 0 1 1.71 5 23.81 23.81 0 0 1 .48 5.4v1.51c0 .27-.05.55-.05.82z"/></symbol><symbol id="micropachycephalosaurus" viewBox="0 0 252 252"><path d="M130.5 148.94c-.28 0-.42.19-.42.59H130c-.31 0-.47.16-.47.49s.16.59.47.59.41-.2.41-.59.05 0 .09 0c.34 0 .5-.16.5-.49s-.16-.59-.5-.59zm1.44-.79a2.17 2.17 0 0 0-.85.79h.29a2.22 2.22 0 0 0 1.1-.33 2.19 2.19 0 0 0 .84-.78H133a2 2 0 0 0-1.06.32zm3.06-2.55q-.42 0-.42.54a.25.25 0 0 0-.13 0c-.28 0-.42.18-.42.56a.23.23 0 0 0-.12 0c-.31 0-.48.2-.48.59s.17.54.48.54.46-.18.46-.54h.08c.32 0 .46-.2.46-.59s.05 0 .09 0c.34 0 .5-.18.5-.56s-.19-.54-.5-.54zm23-5.87a13.1 13.1 0 0 1-1.26 1.4 1.78 1.78 0 0 0 .8 1 2.94 2.94 0 0 0 1.13.19 2.17 2.17 0 0 0 1.39-.47 4.92 4.92 0 0 0 1-1.21 10.6 10.6 0 0 0 .75-1.46c.22-.51.38-1.16.5-1.16H159c-.24.04-.55 1.11-1 1.71z"/><path d="M126 0a126 126 0 1 0 126 126A126 126 0 0 0 126 0zm94.49 74.75a4.9 4.9 0 0 1-1.55.37 13.08 13.08 0 0 1-1.64.09h-1.1l-.93.07a42.54 42.54 0 0 0-5.16 1.23 16.11 16.11 0 0 0-3.62 1.58 9.18 9.18 0 0 0-2.49 2.16 13.61 13.61 0 0 0-1.75 2.91A36.21 36.21 0 0 0 200.8 87c-.47 1.47-1 3.13-1.64 5-.39 1.18-.79 2.31-1.18 3.4s-.81 2.14-1.25 3.15-.91 2.06-1.43 3.11-1.1 2.1-1.74 3.21a34.39 34.39 0 0 1-2.65 4c-.94 1.23-1.91 2.45-2.92 3.63s-2 2.35-3.08 3.53-2.07 2.45-3.09 3.8a10.11 10.11 0 0 0-1.36 2.65c-.3.87-.61 1.72-1 2.53a7.88 7.88 0 0 1-1.33 2.18 5.44 5.44 0 0 1-2.46 1.58 8.59 8.59 0 0 1-1.33.56l-2 .67-2 .63c-.64.2-1.08.33-1.35.38a2.92 2.92 0 0 1 .17 2 2 2 0 0 1-.86.92 12.14 12.14 0 0 1-1.2.59 1.64 1.64 0 0 0-.88 1l-2.22 6.71a2.63 2.63 0 0 1-1 1.5 6.05 6.05 0 0 1-1.75.85 10.83 10.83 0 0 1-2 .18 13.82 13.82 0 0 1-1.84-.13h-.84c-.48 0-.86.16-1.12.05s-.41-.33-.41-.84a.58.58 0 0 1 .11-.37 3.11 3.11 0 0 1 .23-.28l.24-.28a.75.75 0 0 0 .09-.39.49.49 0 0 0 0-.11.44.44 0 0 1 0-.18 22.53 22.53 0 0 0-3.4 1.64c-1.1.64-2.22 1.33-3.34 2l-3.3 2.15a35.48 35.48 0 0 1-3.34 2 3.14 3.14 0 0 1-.85.44 11.27 11.27 0 0 0-1.15.58 4.84 4.84 0 0 0-1 .77 1.48 1.48 0 0 0-.43 1 2.86 2.86 0 0 0 0 .33v.23c.56.49 1.15 1 1.78 1.61s1.25 1.15 1.92 1.71 1.33 1.1 2 1.59a14.08 14.08 0 0 0 2.09 1.23 9.34 9.34 0 0 0 1.79.68l1.92.52c.65.2 1.27.4 1.88.64a7.4 7.4 0 0 1 1.66.91 7.93 7.93 0 0 1 1.33 1.39l1.1 1.5c.35.49.72 1 1.12 1.45a6.21 6.21 0 0 0 1.51 1.3 6 6 0 0 0 1.66.59 17.46 17.46 0 0 1 2.06.64 6.38 6.38 0 0 1 1.77 1 2.07 2.07 0 0 1 .76 1.69.91.91 0 0 1-.07.28 1.39 1.39 0 0 0 0 .23l-5.57 1.13a4.08 4.08 0 0 0-1.09.38 2.25 2.25 0 0 1-1.15.26h-.28a1.59 1.59 0 0 0-.27 0l-1.12-.62-1.73-1c-.61-.35-1.16-.69-1.67-1a6.25 6.25 0 0 1-1-.73s-.1-.09-.2-.22l-.31-.49-.34-.54c-.1-.18-.2-.33-.25-.45l-2.24-4.47-1.13-.44-1.79-.74c-.68-.28-1.37-.59-2.12-.92s-1.45-.66-2.12-1-1.27-.58-1.78-.83a9.51 9.51 0 0 1-1.1-.59 23.17 23.17 0 0 1-2.92-1.56 16.06 16.06 0 0 1-2.6-2.12 13.14 13.14 0 0 1-2-2.66 8.07 8.07 0 0 1-1-3.11l-.56.23a2.61 2.61 0 0 0-.59.33 7.09 7.09 0 0 1-.85.64l-1.7 1.17c-.65.44-1.36.92-2.1 1.4s-1.45.92-2.11 1.34-1.24.78-1.74 1.07a8.9 8.9 0 0 1-.93.53c-2.24 1.33-4.21 2.5-5.94 3.5a23.31 23.31 0 0 0-4.5 3.38 17.22 17.22 0 0 0-3.59 4.41c-.87 1.69-.72 3.88-2.36 6.56v.21a2.77 2.77 0 0 1 0 .41 4.34 4.34 0 0 0 0 .51v.43a9.92 9.92 0 0 0 1.14 4.4 7.83 7.83 0 0 0 2.11 2.55 8.66 8.66 0 0 0 2.61 1.4 27.1 27.1 0 0 1 2.54 1 5.46 5.46 0 0 1 2 .95 5 5 0 0 1 .79 2h-13.23s-.09-.24-.18-.39-.24-.12-.37-.2a4.11 4.11 0 0 0-.49-.15 2.79 2.79 0 0 1-.61-.32 2.93 2.93 0 0 1-1.25-1.52 8.92 8.92 0 0 1-.46-2.14 16.51 16.51 0 0 1 .2-2.32c0-.77.28-1.44.28-2v-1.44a7 7 0 0 1 .26-1.75c.22-.8.33-1.69.58-2.68s.47-2 .76-3.12.55-2.13.8-3.12.47-1.87.65-2.65.34-1.36.42-1.74a14.65 14.65 0 0 1 .66-2 13.19 13.19 0 0 1 1-1.88 14 14 0 0 0 4.47-2.55 26 26 0 0 0 3.22-3.25c1-1.13 1.94-2.27 2.88-3.4a15.44 15.44 0 0 1 3.4-3.06 7 7 0 0 1 1.43-.7l2-.79c.75-.3 1.51-.63 2.3-1a14.78 14.78 0 0 0 2.14-1.11 8.39 8.39 0 0 0 1.56-1.32 2.34 2.34 0 0 0 .61-1.54v-1.32a1.84 1.84 0 0 0-.63-1.2 6.3 6.3 0 0 1-.75-.28l-1.18-.52-1.17-.56-.77-.33a10.08 10.08 0 0 1-2-1.2c-.83-.61-1.7-1.23-2.61-1.88s-1.74-1-2.53-1.54a3.17 3.17 0 0 0-1.73-.56h-7.8c-5.94 0-11.77-.1-17.52.1s-11.59.2-17.52.2c-4.36 0-8.61-.15-12.76-.36a110.14 110.14 0 0 1-12.27-1.36 84.22 84.22 0 0 1-11.92-2.91 68 68 0 0 1-11.68-5l-1.42-.71a11.88 11.88 0 0 1-1.57-1 6.26 6.26 0 0 1-1.29-1.28 2.55 2.55 0 0 1-.52-1.57 6.92 6.92 0 0 1 2.08.4c.79.28 1.6.57 2.39.92s1.51.66 2.17 1 1.15.51 1.49.62c1.43.56 3 1.12 4.62 1.65s3.32 1 5 1.43 3.41.74 5.08 1a33.06 33.06 0 0 0 4.82.35h25.07a9.39 9.39 0 0 0 1.22-.12l2.53-.34c1-.13 2.12-.31 3.34-.52s2.41-.41 3.6-.6 2.33-.4 3.4-.61 2-.41 2.65-.58c2.13-.41 4.42-.85 6.83-1.33s4.85-1 7.3-1.59 4.85-1.3 7.2-2.09a48 48 0 0 0 6.56-2.77c1.28-.6 2.54-1.19 3.79-1.76s2.48-1.12 3.77-1.6 2.58-.93 3.91-1.31a32.27 32.27 0 0 1 4.17-.91c.1 0 .45-.06 1-.11l1.77-.12 1.76-.14a5.33 5.33 0 0 0 1-.18c.31 0 .93-.14 1.87-.33l3.32-.73c1.27-.28 2.61-.57 4-.9s2.76-.62 4-.9 2.35-.92 3.28-1.11 1.57-.72 1.88-.72h6.46c2.7 0 5.32.48 7.87.71s5.13.51 7.78.51a10 10 0 0 0 5-1.24 18.15 18.15 0 0 0 4.47-3.48 32 32 0 0 0 3.86-4.92 62 62 0 0 0 3.23-5.61c1-1.89 1.82-3.74 2.53-5.53s1.3-3.38 1.76-4.77c.42-1.18.78-2.33 1.11-3.43s.66-2.15 1-3.1a15.19 15.19 0 0 1 1.2-2.6 7.22 7.22 0 0 1 1.76-2 7.87 7.87 0 0 1 2.59-1.59 12.46 12.46 0 0 1 3.77-.78h3.04c.75 1.64 1.74.9 3 1.3a35.32 35.32 0 0 1 3.51 1.51 15 15 0 0 1 3 1.81 2.82 2.82 0 0 1 1.24 2.16 2 2 0 0 1-.45 1.4 3 3 0 0 1-1.13.79z"/></symbol><symbol id="velociraptor" viewBox="0 0 252 252"><path d="M126.67-1a126.67 126.67 0 1 0 126.66 126.67A126.65 126.65 0 0 0 126.67-1zM236.2 114.59c-1.41.08-2.78.08-4.1 0s-2.41-.08-3.24-.08c-3 0-6.08-.15-9.1-.45s-6-.63-9.07-1-6-.66-9.06-1-6.08-.44-9.15-.44a134.68 134.68 0 0 0-16.22 1 73.57 73.57 0 0 0-15.77 3.69l-30.41 11a2.43 2.43 0 0 0-1.21 1.55 21.77 21.77 0 0 0-.81 2.72c-.23 1-.43 1.94-.63 2.85a6.78 6.78 0 0 1-.61 1.95 3.23 3.23 0 0 0 1.37 1.32 23.31 23.31 0 0 0 2.43 1.15l2.88 1.18a18.41 18.41 0 0 1 2.76 1.43 8.8 8.8 0 0 1 2.08 1.87 3.86 3.86 0 0 1 .81 2.45 1.64 1.64 0 0 1-.48 1.2 5.25 5.25 0 0 1-1.21.88 14 14 0 0 1-1.6.73 9.17 9.17 0 0 0-1.6.79 4.68 4.68 0 0 0-1.23 1 2.36 2.36 0 0 0-.47 1.5 3.69 3.69 0 0 0 .79 2.53 7.82 7.82 0 0 0 1.91 1.57c.75.46 1.54.89 2.37 1.32a7.77 7.77 0 0 1 2.15 1.72 17.64 17.64 0 0 1 2 3.44 23 23 0 0 1 1.27 3.66 33.44 33.44 0 0 1 .76 3.84c.18 1.3.11 2.62.26 3.93l1.31 1.3v7.14a3.78 3.78 0 0 1 .85 0c.28.05.71.1 1 .18l1 .22a1.46 1.46 0 0 1 .56.23c0 .45.08.73.08.84a6.22 6.22 0 0 1-.11 1 6.44 6.44 0 0 1-.36 1.24 3.15 3.15 0 0 1-.62.93 1 1 0 0 1-.88.31h-5.17c-.2 0-.51-.52-1-.82s-1-.54-1.49-.85-1-.46-1.55-.78-.89-.85-1.16-.85h-6.13a4.69 4.69 0 0 1 .65-3 4.29 4.29 0 0 1 1.63-1.54 7.17 7.17 0 0 1 2.12-.65c.74-.1 1.45-.22 2.11-.35a5 5 0 0 0 1.62-.6 1.48 1.48 0 0 0 .65-1.36 2.19 2.19 0 0 0 0-.33v-.3c-.18-.42-.47-1-.85-1.77s-.79-1.57-1.27-2.41a26 26 0 0 0-1.52-2.47 9.45 9.45 0 0 0-1.55-1.8 7.61 7.61 0 0 0-1.29-.79l-1.85-.94c-.64-.35-1.22-.7-1.75-1.06a2.18 2.18 0 0 1-1-1.09 23.1 23.1 0 0 1-.92-2.92 22.39 22.39 0 0 0-1.08-3.21 8 8 0 0 0-1.72-2.58 4 4 0 0 0-2.87-1 23.32 23.32 0 0 0-6 .8 26.36 26.36 0 0 0-5.7 2.23 25.51 25.51 0 0 0-5 3.45 22.06 22.06 0 0 0-3.91 4.56.44.44 0 0 1-.35.18h-.17a.15.15 0 0 1-.11-.15c-.07 0-.13-.15-.2-.33s-.1-.4-.17-.63-.11-.43-.16-.61a.66.66 0 0 0-.15-.33.64.64 0 0 0-.28-.07 1.44 1.44 0 0 0-1.06.48 6.88 6.88 0 0 0-.87 1.16c-.28.44-.57.89-.83 1.32a3.53 3.53 0 0 1-.84 1 4.38 4.38 0 0 1-.65-1.63 15.08 15.08 0 0 1-.08-1.64 10.14 10.14 0 0 1 .4-2.89c.26-.93.56-1.85.89-2.79s.64-1.57.91-2.55a19.77 19.77 0 0 0 .39-2.76h-4.82c0-1.65.22-1.8.65-2.36a5.83 5.83 0 0 1 1.6-1.57 7.31 7.31 0 0 1 2.12-.91 10.64 10.64 0 0 1 2.11-.29 20.12 20.12 0 0 1 3 .2c1 .16 2 .3 2.92.47s1.92.32 2.88.45a19.8 19.8 0 0 0 2.9.2h2.3a2.54 2.54 0 0 0-1.68-1.35A14.35 14.35 0 0 0 109 147l-2.68-.2c-.89-.05-1.6.15-2.18-.2l-3.88-2.18H100a13.39 13.39 0 0 0-3.16 0 13.06 13.06 0 0 1-3.14.16 7.3 7.3 0 0 1-3-.69 26.24 26.24 0 0 1-2.63-1.37c-.84-.48-1.76-1-2.61-1.35a5.14 5.14 0 0 0-2.87-.62v6a14.39 14.39 0 0 0 1.59-.14 5.87 5.87 0 0 0 1-.34 4.68 4.68 0 0 0 .87-.51c.32-.2.38-.41.89-.64.12-.07.61-.13.61-.17v2.76l2-.68c0 .12.19.29.21.52s.12.38.12.49a5.51 5.51 0 0 1-1.31 3.87 21.61 21.61 0 0 1-3.24 2.89 23.53 23.53 0 0 0-4.59-1.26c-1.5-.24-3.11-.46-4.76-.66v-7.76c0 .08-1 .25-1.73.53a16 16 0 0 0-2 1 11.64 11.64 0 0 0-1.91 1.19c-.46.41-.93.81-.93 1.17v6.87a10.37 10.37 0 0 0 3-.28 11.31 11.31 0 0 0 3.05-1.19 2.67 2.67 0 0 1 1.22-.28h.35c0 .11.13.35.28.73s.3.79.47 1.23.28.9.38 1.29a4.56 4.56 0 0 1 .18 1 5 5 0 0 1-.4 1.9 6.7 6.7 0 0 1-1.07 1.8 5.81 5.81 0 0 1-1.55 1.34 3.42 3.42 0 0 1-1.82.55 3.46 3.46 0 0 1-.58-.07l-.44-.05c-.75-.15-1.74-.31-3-.48a28.42 28.42 0 0 1-3.63-.71 12 12 0 0 1-3.23-1.24 2.5 2.5 0 0 1-1.45-2.08v-11.66c0-.11.39-.38.88-.82s1.17-1 1.88-1.61 1.53-1.35 2.37-2.16a25.49 25.49 0 0 0 2.37-2.53 21.1 21.1 0 0 0 1.81-2.64 5.45 5.45 0 0 0 .73-2.58 3.82 3.82 0 0 0-1.21-2.76 11.58 11.58 0 0 0-2.79-2 23 23 0 0 0-3.21-1.44c-1.09-.36-1.93-.66-2.53-.89L60.14 119c-.15-.82-.35-1.72-.61-2.69a11.83 11.83 0 0 0-1.11-2.74 7.12 7.12 0 0 0-1.77-2.14 4.11 4.11 0 0 0-2.64-.87 12.21 12.21 0 0 0-3.62.48 14.38 14.38 0 0 0-3.2 1.49c-.33.23-.88.56-1.64 1S44 114.47 43 115s-1.91 1.12-3 1.75l-3 1.73c-.94.55-1.79 1.23-2.53 1.65s-1.3 1.11-1.64 1.11h-1c-.47 0-1-.2-1.72-.23a14.48 14.48 0 0 1-2.07-.37 3.44 3.44 0 0 1-1.37-.76c-.46-.31-.34-.8-.34-1.36v-1.87c0-.6-.22-.91 0-.93h1.57a1 1 0 0 1 0-.43c.07-.25.09-.51.16-.81s.12-.6.17-.86a.89.89 0 0 0 0-.5 2.51 2.51 0 0 0-.8-.82c-.3-.17-.6-.33-.88-.5a2.46 2.46 0 0 1-.7-.66 2.08 2.08 0 0 1-.28-1.24 3.08 3.08 0 0 1 .25-1.17 4.89 4.89 0 0 1 .68-1.16c.28-.36.24-.64.61-.87a3 3 0 0 1 .81-.33v.77c0 .5.41 1 .56 1.47a1.17 1.17 0 0 0 1.2.73 1.61 1.61 0 0 0 1.09-.48 4.94 4.94 0 0 0 .95-1.12 10.2 10.2 0 0 0 .64-1.63c.15-.45.25.27.25-1.38H20.6a2 2 0 0 1-.86-.47c-.36-.27-.71-.39-1-.67a8 8 0 0 1-.91-.8 1.46 1.46 0 0 1-.39-1 4.47 4.47 0 0 1 1.07-3.17 7.41 7.41 0 0 1 2.6-1.79 16.52 16.52 0 0 1 3.17-1 19.81 19.81 0 0 0 2.8-.83c.41-.15 1.16-.46 2.2-.92s2.18-1 3.35-1.56 2.3-1.06 3.32-1.57a9.8 9.8 0 0 1 2.18-1.07H51.7a7.46 7.46 0 0 1 3.85 1 13.34 13.34 0 0 1 3.1 2.52 26 26 0 0 1 2.53 3.3 90.89 90.89 0 0 0 2.28 3.28 16.09 16.09 0 0 0 2.26 2.54 3.64 3.64 0 0 0 2.48 1 .81.81 0 0 0 .78-.4.89.89 0 0 1 .84-.39 3.88 3.88 0 0 1 1.5.31c.5.2 1 .45 1.53.71s1 .5 1.51.7a4 4 0 0 0 1.56.31c1.39 0 2.76-.07 4.1-.2s2.71-.28 4.08-.44 2.74-.33 4.09-.48a36.87 36.87 0 0 1 4.1-.23 65.38 65.38 0 0 1 7.27.39 38.7 38.7 0 0 1 7.2 1.57c1.66.56 3.33 1.22 5 2s3.38 1.47 5.09 2.17a46.72 46.72 0 0 0 5.2 1.75 21.42 21.42 0 0 0 5.42.69h1.26c.62 0 1.05-.06 1.32-.06 4.28-.93 8.56-1.84 12.82-2.7s8.52-1.63 12.77-2.28 8.56-1.15 12.87-1.55 8.67-.56 13.07-.56h3.32c1.8 0 3.63 0 5.48.12a38.41 38.41 0 0 1 5 .92l36.34 7.13h11.66c-.79 0-1.83 1-3.12 1.36a18.65 18.65 0 0 1-4.06.23z"/></symbol></svg>